<svg version="1.1" id="Layer_1"
	xmlns="http://www.w3.org/2000/svg"
	xmlns:xlink="http://www.w3.org/1999/xlink" x="0px" y="0px" width="100%" viewBox="200 50 750 750" enable-background="new 200 50 750 750" xml:space="preserve">
	<defs>
		<linearGradient id="blueGradient1" x1="0%" y1="0%" x2="100%" y2="100%">
			<stop offset="0%" style="stop-color:#0D78EE;stop-opacity:1" />
			<stop offset="100%" style="stop-color:#0AA6CB;stop-opacity:1" />
		</linearGradient>
		<linearGradient id="blueGradient2" x1="0%" y1="0%" x2="100%" y2="100%">
			<stop offset="0%" style="stop-color:#0E72F2;stop-opacity:1" />
			<stop offset="100%" style="stop-color:#09ADC5;stop-opacity:1" />
		</linearGradient>
		<linearGradient id="blueGradient3" x1="0%" y1="100%" x2="100%" y2="0%">
			<stop offset="0%" style="stop-color:#0BA0D0;stop-opacity:1" />
			<stop offset="100%" style="stop-color:#0E84E5;stop-opacity:1" />
		</linearGradient>
		<linearGradient id="blueGradient4" x1="100%" y1="0%" x2="0%" y2="100%">
			<stop offset="0%" style="stop-color:#1280EA;stop-opacity:1" />
			<stop offset="100%" style="stop-color:#0AB3C2;stop-opacity:1" />
		</linearGradient>
	</defs>
	<path fill="#FFFFFF" opacity="1.000000" stroke="none" d="
M665.000000,821.000000 
	C443.361938,821.000000 222.223907,821.000000 1.042929,821.000000 
	C1.042929,547.730652 1.042929,274.461304 1.042929,1.095984 
	C370.888123,1.095984 740.776245,1.095984 1110.832275,1.095984 
	C1110.832275,274.333252 1110.832275,547.666626 1110.832275,821.000000 
	C962.461182,821.000000 813.980591,821.000000 665.000000,821.000000 
M901.592712,475.461365 
	C902.086121,471.646637 902.579529,467.831940 903.627258,463.418701 
	C904.084045,458.946198 904.540771,454.473724 905.333801,449.239166 
	C905.558289,444.492188 905.782776,439.745178 906.596680,434.412903 
	C906.730408,431.274261 906.765259,428.127380 907.024597,424.999146 
	C907.309998,421.557098 905.666321,420.029633 902.419678,420.024384 
	C887.115417,419.999695 871.810791,419.957001 856.507141,420.053802 
	C852.814148,420.077148 850.651123,421.880676 850.957642,426.016571 
	C851.178284,428.994446 850.998657,432.002014 850.673218,435.752045 
	C850.124695,440.506226 849.576233,445.260437 849.011841,450.860809 
	C848.352783,455.244629 847.693726,459.628448 846.913696,464.790192 
	C845.974426,468.868378 845.035217,472.946564 844.014832,477.810211 
	C843.043884,481.546478 842.072998,485.282776 840.927795,489.762177 
	C839.919006,493.492188 838.910278,497.222198 837.400757,501.462799 
	C835.958130,505.646545 834.515503,509.830322 832.724365,514.631897 
	C830.848511,519.094788 828.972656,523.557739 826.730835,528.621155 
	C824.223999,533.759033 821.717102,538.896851 818.824402,544.622131 
	C815.799866,550.039734 812.775330,555.457397 809.228760,561.284607 
	C805.123596,567.467529 801.018372,573.650513 796.376038,580.241150 
	C791.531738,586.392517 786.687378,592.543884 781.273560,599.065186 
	C774.486877,606.030334 767.700195,612.995483 760.309265,620.238647 
	C752.807922,626.465088 745.306519,632.691528 737.164673,639.114075 
	C729.347534,644.355408 721.530396,649.596680 713.038025,654.991516 
	C705.358704,659.035278 697.679443,663.079041 689.290955,667.175110 
	C678.691650,671.417786 668.225891,676.045044 657.452515,679.786499 
	C648.142639,683.019836 638.483154,685.246521 628.130249,687.879517 
	C609.689819,689.919495 591.279236,692.319458 572.796631,693.850647 
	C563.249451,694.641663 553.574402,693.889832 543.043823,693.625671 
	C511.454132,693.750549 479.864471,693.881714 448.274719,693.991150 
	C444.830322,694.003113 441.385498,693.888916 437.098694,693.626038 
	C405.053467,693.557983 373.008209,693.485107 340.962952,693.439453 
	C339.652893,693.437622 338.342468,693.692566 336.166962,693.525024 
	C321.815643,693.525024 307.464325,693.525024 293.108124,693.525024 
	C293.108124,712.458618 293.108124,730.507935 293.108124,748.464539 
	C293.664307,748.691528 293.958496,748.916809 294.252563,748.916687 
	C325.502014,748.900879 356.751465,748.868164 388.928833,748.975891 
	C422.286194,748.929016 455.643555,748.882080 489.928680,748.975830 
	C520.328369,748.983032 550.728149,749.032288 581.127563,748.952576 
	C585.752502,748.940430 590.375916,748.330444 595.915894,748.126770 
	C600.881897,747.743652 605.863281,747.499329 610.811279,746.953430 
	C631.647339,744.654785 652.085266,740.459229 672.746826,733.822998 
	C692.713257,727.416931 712.155029,719.786011 730.994141,709.042053 
	C734.618347,707.026428 738.319397,705.136414 741.854004,702.974426 
	C762.272705,690.485352 781.951416,676.999756 799.643738,659.799744 
	C805.443359,653.895203 811.242981,647.990662 817.650879,641.795959 
	C823.166992,635.302734 828.683044,628.809509 834.780334,621.957764 
	C839.739868,615.057312 844.699341,608.156860 850.156982,600.893372 
	C854.182190,594.278198 858.207397,587.663025 862.764282,580.658020 
	C865.995361,574.466797 869.226440,568.275574 872.941711,561.663696 
	C875.366882,556.191406 877.791992,550.719055 880.716675,544.730347 
	C882.763184,539.492188 884.809692,534.254028 887.240662,528.368896 
	C888.551147,523.970886 889.861694,519.572876 891.679565,514.642761 
	C892.879395,510.109711 894.079224,505.576660 895.759766,500.532806 
	C896.581543,496.713562 897.403320,492.894318 898.713989,488.505280 
	C899.491882,484.337616 900.269714,480.169983 901.592712,475.461365 
M332.822174,269.662994 
	C335.258209,265.790131 337.694244,261.917267 340.666443,257.663666 
	C343.082916,254.098541 345.499420,250.533401 348.472565,246.602249 
	C351.647156,242.401443 354.821747,238.200638 358.382874,233.455963 
	C361.843048,229.627441 365.303223,225.798920 369.120697,221.376541 
	C375.175323,215.643616 381.229950,209.910675 387.900391,203.933914 
	C395.363556,198.015076 402.826721,192.096237 410.929749,185.974411 
	C418.007538,181.347229 425.085297,176.720062 432.846588,171.970703 
	C441.603577,167.457153 450.360565,162.943604 459.859344,158.270523 
	C484.178070,147.354507 509.679718,140.632935 536.850037,136.877502 
	C549.613403,136.202698 562.369812,135.291641 575.142029,134.919113 
	C588.091003,134.541428 601.055542,134.695862 614.932190,134.796127 
	C626.549072,134.810074 638.166016,134.858261 649.782837,134.830444 
	C670.520935,134.780762 691.258972,134.685181 712.917908,134.794495 
	C740.610718,134.732971 768.303589,134.671463 796.917297,134.796127 
	C805.667542,134.796127 814.417786,134.796127 823.175903,134.796127 
	C823.175903,115.904167 823.175903,97.568359 823.175903,79.165169 
	C796.857239,79.165169 770.929321,79.165169 744.073975,79.020744 
	C716.383240,79.068825 688.692444,79.116905 660.074219,79.020538 
	C628.051514,79.067184 596.028748,79.113831 563.082153,79.016563 
	C556.278809,79.366302 549.392517,79.164627 542.688477,80.173958 
	C525.719299,82.728767 508.831970,85.827431 491.097809,88.808090 
	C479.672913,92.204643 467.986511,94.919945 456.892242,99.177925 
	C444.298187,104.011536 432.233917,110.225555 419.212646,115.958008 
	C392.786896,128.962234 368.941956,145.693726 346.802826,165.975189 
	C341.458862,171.291718 336.114929,176.608261 330.179138,182.205276 
	C324.605469,188.430283 319.031830,194.655304 312.944916,201.229736 
	C308.911133,206.707413 304.877319,212.185089 300.264313,218.043411 
	C297.455383,222.243256 294.646454,226.443085 291.275177,231.061279 
	C288.480835,235.695068 285.686493,240.328857 282.366638,245.381180 
	C280.519531,248.845840 278.672424,252.310501 276.322845,256.246277 
	C274.409821,260.112793 272.496796,263.979309 270.092468,268.289978 
	C268.374969,272.184174 266.657471,276.078369 264.410431,280.428772 
	C262.563049,285.279724 260.715668,290.130646 258.347198,295.443268 
	C256.812164,300.284302 255.277100,305.125336 253.256866,310.456268 
	C252.131866,314.599579 251.006882,318.742920 249.376999,323.412415 
	C248.224045,328.272827 247.071091,333.133209 245.391525,338.515503 
	C244.576874,343.006531 243.762207,347.497559 242.402084,352.533508 
	C241.611725,357.683563 240.821365,362.833649 239.905136,368.798157 
	C239.274857,374.861023 238.644592,380.923859 238.001724,387.857025 
	C237.671143,392.792725 237.142670,397.729126 237.161224,402.663513 
	C237.165421,403.776031 239.064453,405.834595 240.110977,405.847412 
	C256.540588,406.049011 272.974274,406.053253 289.403809,405.847046 
	C290.604492,405.832001 292.657074,403.969879 292.816376,402.768036 
	C293.508514,397.547302 293.645508,392.253021 293.989716,386.114563 
	C294.651917,380.405426 295.314148,374.696259 296.092926,368.203217 
	C297.080872,362.809753 298.068817,357.416290 299.353790,351.342407 
	C300.535736,347.220673 301.717712,343.098938 303.060211,338.231628 
	C304.361755,333.818512 305.663300,329.405426 307.284576,324.334717 
	C308.876678,319.899292 310.468811,315.463898 312.562744,310.545074 
	C314.645935,305.686340 316.729095,300.827606 319.168823,295.358276 
	C321.376099,290.894226 323.583374,286.430206 326.200256,281.395264 
	C328.256897,277.649384 330.313538,273.903534 332.822174,269.662994 
M465.661957,446.890289 
	C468.799927,454.516174 471.937866,462.142029 475.092010,469.807251 
	C474.703247,469.861755 474.229645,469.986237 473.756042,469.986328 
	C421.256470,469.996277 368.756775,470.029755 316.257782,469.857971 
	C314.464996,469.852112 312.078766,468.190826 310.992157,466.601654 
	C305.902679,459.158417 299.639648,452.898590 291.683380,448.867523 
	C271.282593,438.531250 250.779922,438.950714 232.148209,452.341522 
	C213.000977,466.102875 205.828644,485.705261 210.031311,509.005310 
	C214.010208,531.064575 230.901718,547.724487 253.578217,552.575073 
	C274.986450,557.154419 297.778290,548.216431 309.978363,530.039978 
	C312.262299,526.637268 314.677856,525.756470 318.510986,525.760986 
	C401.843536,525.859619 485.176239,525.814758 568.508911,525.844788 
	C604.195557,525.857666 634.457703,513.351135 657.347107,485.713104 
	C682.595276,455.226959 689.986206,420.455078 678.654480,382.277039 
	C676.223572,374.087128 672.235779,366.359314 668.862976,358.170410 
	C669.298523,358.170410 669.899292,358.170410 670.500000,358.170410 
	C722.832947,358.169830 775.165955,358.131348 827.498230,358.317566 
	C829.441345,358.324463 832.021790,360.074524 833.203979,361.776947 
	C838.355469,369.195618 844.732605,375.363708 852.689758,379.329224 
	C873.147400,389.524475 893.645081,388.949219 912.187866,375.404297 
	C931.431641,361.347229 938.297913,341.492737 933.844788,318.079529 
	C929.750671,296.554138 912.482422,279.947510 890.013123,275.309204 
	C868.822632,270.934845 845.770569,280.090027 834.077209,297.906281 
	C831.841736,301.312256 829.410339,302.240845 825.572388,302.236389 
	C742.406433,302.140594 659.240417,302.122101 576.074585,302.235687 
	C568.776062,302.245667 561.402954,302.781799 554.193176,303.902130 
	C487.552795,314.257538 445.329651,381.974701 465.661957,446.890289 
z"/>
	<path fill="#011E6D" opacity="1.000000" stroke="none" d="
M465.504852,446.523682 
	C445.329651,381.974701 487.552795,314.257538 554.193176,303.902130 
	C561.402954,302.781799 568.776062,302.245667 576.074585,302.235687 
	C659.240417,302.122101 742.406433,302.140594 825.572388,302.236389 
	C829.410339,302.240845 831.841736,301.312256 834.077209,297.906281 
	C845.770569,280.090027 868.822632,270.934845 890.013123,275.309204 
	C912.482422,279.947510 929.750671,296.554138 933.844788,318.079529 
	C938.297913,341.492737 931.431641,361.347229 912.187866,375.404297 
	C893.645081,388.949219 873.147400,389.524475 852.689758,379.329224 
	C844.732605,375.363708 838.355469,369.195618 833.203979,361.776947 
	C832.021790,360.074524 829.441345,358.324463 827.498230,358.317566 
	C775.165955,358.131348 722.832947,358.169830 670.500000,358.170410 
	C669.899292,358.170410 669.298523,358.170410 668.862976,358.170410 
	C672.235779,366.359314 676.223572,374.087128 678.654480,382.277039 
	C689.986206,420.455078 682.595276,455.226959 657.347107,485.713104 
	C634.457703,513.351135 604.195557,525.857666 568.508911,525.844788 
	C485.176239,525.814758 401.843536,525.859619 318.510986,525.760986 
	C314.677856,525.756470 312.262299,526.637268 309.978363,530.039978 
	C297.778290,548.216431 274.986450,557.154419 253.578217,552.575073 
	C230.901718,547.724487 214.010208,531.064575 210.031311,509.005310 
	C205.828644,485.705261 213.000977,466.102875 232.148209,452.341522 
	C250.779922,438.950714 271.282593,438.531250 291.683380,448.867523 
	C299.639648,452.898590 305.902679,459.158417 310.992157,466.601654 
	C312.078766,468.190826 314.464996,469.852112 316.257782,469.857971 
	C368.756775,470.029755 421.256470,469.996277 473.756042,469.986328 
	C474.229645,469.986237 474.703247,469.861755 475.092010,469.807251 
	C471.937866,462.142029 468.799927,454.516174 465.504852,446.523682 
M536.519897,370.994476 
	C528.809082,377.414459 523.001892,385.257629 519.738831,394.741577 
	C507.702972,429.723083 528.832642,464.069153 565.508179,469.339905 
	C602.313721,474.629333 635.082947,438.802185 626.683655,402.455658 
	C617.216248,361.487061 570.191711,344.752167 536.519897,370.994476 
z"/>
	<path fill="url(#blueGradient1)" opacity="1.000000" stroke="none" d="
M437.940857,693.833252 
	C441.385498,693.888916 444.830322,694.003113 448.274719,693.991150 
	C479.864471,693.881714 511.454132,693.750549 543.539673,694.086792 
	C545.249207,696.090759 546.322815,697.773132 547.698181,699.155029 
	C562.341309,713.867493 577.051880,728.512939 591.677551,743.242737 
	C593.019714,744.594482 593.903381,746.401428 595.000000,747.996948 
	C590.375916,748.330444 585.752502,748.940430 581.127563,748.952576 
	C550.728149,749.032288 520.328369,748.983032 489.456604,748.554443 
	C483.146942,741.746033 477.470306,735.202087 471.435364,729.007263 
	C461.464722,718.772339 451.232910,708.792297 441.194275,698.622803 
	C439.860870,697.272034 439.013367,695.441528 437.940857,693.833252 
z"/>
	<path fill="url(#blueGradient1)" opacity="1.000000" stroke="none" d="
M437.519775,693.729614 
	C439.013367,695.441528 439.860870,697.272034 441.194275,698.622803 
	C451.232910,708.792297 461.464722,718.772339 471.435364,729.007263 
	C477.470306,735.202087 483.146942,741.746033 488.992737,748.484131 
	C455.643555,748.882080 422.286194,748.929016 388.420532,748.567139 
	C386.972473,746.814636 386.210114,745.292419 385.065979,744.153931 
	C369.892578,729.055054 354.633209,714.042358 339.511505,698.892151 
	C338.255005,697.633301 337.838806,695.535706 337.032196,693.827820 
	C338.342468,693.692566 339.652893,693.437622 340.962952,693.439453 
	C373.008209,693.485107 405.053467,693.557983 437.519775,693.729614 
z"/>
	<path fill="url(#blueGradient2)" opacity="1.000000" stroke="none" d="
M564.006042,79.160477 
	C596.028748,79.113831 628.051514,79.067184 660.579102,79.425980 
	C662.230103,81.228355 663.269226,82.731903 664.538696,84.005905 
	C678.993469,98.512238 693.539795,112.928093 707.894531,127.532402 
	C709.745667,129.415787 710.652649,132.227234 711.997009,134.608765 
	C691.258972,134.685181 670.520935,134.780762 649.782837,134.830444 
	C638.166016,134.858261 626.549072,134.810074 614.416687,134.379486 
	C607.271606,126.848007 600.760620,119.617790 593.983398,112.646507 
	C584.760498,103.159409 575.272217,93.930000 566.070129,84.423210 
	C564.860657,83.173714 564.669067,80.938927 564.006042,79.160477 
z"/>
	<path fill="url(#blueGradient2)" opacity="1.000000" stroke="none" d="
M712.457458,134.701630 
	C710.652649,132.227234 709.745667,129.415787 707.894531,127.532402 
	C693.539795,112.928093 678.993469,98.512238 664.538696,84.005905 
	C663.269226,82.731903 662.230103,81.228355 661.042847,79.498207 
	C688.692444,79.116905 716.383240,79.068825 744.578979,79.426147 
	C746.224426,81.222733 747.257690,82.720657 748.521484,83.988831 
	C763.263794,98.782066 778.088135,113.494049 792.739746,128.376251 
	C794.312927,129.974121 794.933777,132.509491 795.996399,134.609955 
	C768.303589,134.671463 740.610718,134.732971 712.457458,134.701630 
z"/>
	<path fill="url(#blueGradient3)" opacity="1.000000" stroke="none" d="
M595.457947,748.061890 
	C593.903381,746.401428 593.019714,744.594482 591.677551,743.242737 
	C577.051880,728.512939 562.341309,713.867493 547.698181,699.155029 
	C546.322815,697.773132 545.249207,696.090759 543.996338,694.191528 
	C553.574402,693.889832 563.249451,694.641663 572.796631,693.850647 
	C591.279236,692.319458 609.689819,689.919495 628.594482,688.250244 
	C638.576294,698.351074 648.166687,708.011597 657.581909,717.839844 
	C662.545288,723.020935 667.202881,728.494934 671.998535,733.836670 
	C652.085266,740.459229 631.647339,744.654785 610.811279,746.953430 
	C605.863281,747.499329 600.881897,747.743652 595.457947,748.061890 
z"/>
	<path fill="url(#blueGradient3)" opacity="1.000000" stroke="none" d="
M419.939301,115.839439 
	C432.233917,110.225555 444.298187,104.011536 456.892242,99.177925 
	C467.986511,94.919945 479.672913,92.204643 491.551514,89.123138 
	C493.195892,90.984383 494.236359,92.679771 495.600800,94.053375 
	C507.626343,106.159813 519.757141,118.162155 531.723816,130.326096 
	C533.502625,132.134277 534.588867,134.623917 535.995544,136.798279 
	C509.679718,140.632935 484.178070,147.354507 459.437988,157.969849 
	C457.237549,155.588318 455.577972,153.389267 453.657959,151.447769 
	C446.598511,144.309158 439.332672,137.371109 432.383026,130.128708 
	C428.015106,125.576759 424.072632,120.616508 419.939301,115.839439 
z"/>
	<path fill="url(#blueGradient4)" opacity="1.000000" stroke="none" d="
M536.422791,136.837891 
	C534.588867,134.623917 533.502625,132.134277 531.723816,130.326096 
	C519.757141,118.162155 507.626343,106.159813 495.600800,94.053375 
	C494.236359,92.679771 493.195892,90.984383 491.958557,89.073227 
	C508.831970,85.827431 525.719299,82.728767 542.688477,80.173958 
	C549.392517,79.164627 556.278809,79.366302 563.544067,79.088516 
	C564.669067,80.938927 564.860657,83.173714 566.070129,84.423210 
	C575.272217,93.930000 584.760498,103.159409 593.983398,112.646507 
	C600.760620,119.617790 607.271606,126.848007 613.957214,134.290039 
	C601.055542,134.695862 588.091003,134.541428 575.142029,134.919113 
	C562.369812,135.291641 549.613403,136.202698 536.422791,136.837891 
z"/>
	<path fill="url(#blueGradient4)" opacity="1.000000" stroke="none" d="
M336.599579,693.676392 
	C337.838806,695.535706 338.255005,697.633301 339.511505,698.892151 
	C354.633209,714.042358 369.892578,729.055054 385.065979,744.153931 
	C386.210114,745.292419 386.972473,746.814636 387.956604,748.497437 
	C356.751465,748.868164 325.502014,748.900879 294.252563,748.916687 
	C293.958496,748.916809 293.664307,748.691528 293.108124,748.464539 
	C293.108124,730.507935 293.108124,712.458618 293.108124,693.525024 
	C307.464325,693.525024 321.815643,693.525024 336.599579,693.676392 
z"/>
	<path fill="url(#blueGradient3)" opacity="1.000000" stroke="none" d="
M672.372681,733.829834 
	C667.202881,728.494934 662.545288,723.020935 657.581909,717.839844 
	C648.166687,708.011597 638.576294,698.351074 629.018433,688.269531 
	C638.483154,685.246521 648.142639,683.019836 657.452515,679.786499 
	C668.225891,676.045044 678.691650,671.417786 689.650391,667.506042 
	C690.940674,669.325134 691.645874,671.032043 692.840759,672.264099 
	C698.373169,677.968689 704.000183,683.583557 709.671936,689.150391 
	C716.511719,695.863647 723.430786,702.496277 730.315552,709.163818 
	C712.155029,719.786011 692.713257,727.416931 672.372681,733.829834 
z"/>
	<path fill="url(#blueGradient3)" opacity="1.000000" stroke="none" d="
M419.575989,115.898720 
	C424.072632,120.616508 428.015106,125.576759 432.383026,130.128708 
	C439.332672,137.371109 446.598511,144.309158 453.657959,151.447769 
	C455.577972,153.389267 457.237549,155.588318 459.067078,158.049622 
	C450.360565,162.943604 441.603577,167.457153 432.124817,171.859161 
	C427.994446,171.167252 424.602081,170.218491 421.174622,170.068115 
	C402.947632,169.268341 384.705322,168.803558 366.482574,167.926712 
	C360.090057,167.619110 353.738037,166.469498 347.367523,165.704376 
	C368.941956,145.693726 392.786896,128.962234 419.575989,115.898720 
z"/>
	<path fill="url(#blueGradient3)" opacity="1.000000" stroke="none" d="
M730.654846,709.102905 
	C723.430786,702.496277 716.511719,695.863647 709.671936,689.150391 
	C704.000183,683.583557 698.373169,677.968689 692.840759,672.264099 
	C691.645874,671.032043 690.940674,669.325134 690.005005,667.479858 
	C697.679443,663.079041 705.358704,659.035278 713.777771,655.098755 
	C724.706726,655.804077 734.888794,656.628845 745.086670,656.948547 
	C761.783875,657.471985 778.492615,657.623718 795.192200,658.085266 
	C796.483887,658.120972 797.742371,659.360535 799.016296,660.040588 
	C781.951416,676.999756 762.272705,690.485352 741.854004,702.974426 
	C738.319397,705.136414 734.618347,707.026428 730.654846,709.102905 
z"/>
	<path fill="url(#blueGradient2)" opacity="1.000000" stroke="none" d="
M796.456848,134.703049 
	C794.933777,132.509491 794.312927,129.974121 792.739746,128.376251 
	C778.088135,113.494049 763.263794,98.782066 748.521484,83.988831 
	C747.257690,82.720657 746.224426,81.222733 745.042725,79.498360 
	C770.929321,79.165169 796.857239,79.165169 823.175903,79.165169 
	C823.175903,97.568359 823.175903,115.904167 823.175903,134.796127 
	C814.417786,134.796127 805.667542,134.796127 796.456848,134.703049 
z"/>
	<path fill="url(#blueGradient3)" opacity="1.000000" stroke="none" d="
M834.199219,622.316284 
	C828.683044,628.809509 823.166992,635.302734 817.152039,641.587036 
	C814.803955,640.918762 812.956360,640.067749 811.105164,640.059753 
	C789.452698,639.966492 767.799561,640.038757 746.147095,639.952087 
	C743.365112,639.940979 740.585754,639.278687 737.805176,638.917969 
	C745.306519,632.691528 752.807922,626.465088 761.057495,620.113403 
	C766.255798,620.325500 770.702271,620.882568 775.156555,620.954163 
	C784.394714,621.102661 793.638367,621.084839 802.877258,620.958130 
	C809.168091,620.871887 815.593689,619.593201 821.695190,620.542908 
	C825.836548,621.187439 830.689636,617.782166 834.199219,622.316284 
z"/>
	<path fill="url(#blueGradient3)" opacity="1.000000" stroke="none" d="
M834.489746,622.137085 
	C830.689636,617.782166 825.836548,621.187439 821.695190,620.542908 
	C815.593689,619.593201 809.168091,620.871887 802.877258,620.958130 
	C793.638367,621.084839 784.394714,621.102661 775.156555,620.954163 
	C770.702271,620.882568 766.255798,620.325500 761.359619,619.974365 
	C767.700195,612.995483 774.486877,606.030334 781.831116,599.227905 
	C784.168945,599.593689 785.948853,599.969238 787.729614,599.973450 
	C806.127869,600.016724 824.526489,599.957092 842.924316,600.055481 
	C845.171265,600.067505 847.414185,600.837646 849.658936,601.256409 
	C844.699341,608.156860 839.739868,615.057312 834.489746,622.137085 
z"/>
	<path fill="url(#blueGradient3)" opacity="1.000000" stroke="none" d="
M410.289886,186.177399 
	C402.826721,192.096237 395.363556,198.015076 387.190613,203.869415 
	C385.197540,203.537155 383.918304,203.058029 382.630310,203.033325 
	C362.853668,202.654007 343.074982,202.377197 323.299286,201.957245 
	C320.012787,201.887451 316.738220,201.253540 313.458160,200.880325 
	C319.031830,194.655304 324.605469,188.430283 330.906128,182.129517 
	C333.247894,182.368668 334.856506,182.919693 336.478363,182.961777 
	C351.725952,183.357452 366.975525,183.678772 382.225159,183.990082 
	C385.548096,184.057922 388.895294,183.757858 392.193268,184.052872 
	C398.240417,184.593811 404.259247,185.451675 410.289886,186.177399 
z"/>
	<path fill="url(#blueGradient3)" opacity="1.000000" stroke="none" d="
M737.484924,639.015991 
	C740.585754,639.278687 743.365112,639.940979 746.147095,639.952087 
	C767.799561,640.038757 789.452698,639.966492 811.105164,640.059753 
	C812.956360,640.067749 814.803955,640.918762 816.847900,641.732117 
	C811.242981,647.990662 805.443359,653.895203 799.330017,659.920166 
	C797.742371,659.360535 796.483887,658.120972 795.192200,658.085266 
	C778.492615,657.623718 761.783875,657.471985 745.086670,656.948547 
	C734.888794,656.628845 724.706726,655.804077 714.115356,655.022034 
	C721.530396,649.596680 729.347534,644.355408 737.484924,639.015991 
z"/>
	<path fill="url(#blueGradient3)" opacity="1.000000" stroke="none" d="
M313.201538,201.055023 
	C316.738220,201.253540 320.012787,201.887451 323.299286,201.957245 
	C343.074982,202.377197 362.853668,202.654007 382.630310,203.033325 
	C383.918304,203.058029 385.197540,203.537155 386.882690,203.991318 
	C381.229950,209.910675 375.175323,215.643616 368.544861,221.614349 
	C366.354492,221.567993 364.744354,221.065414 363.124725,221.032928 
	C343.917297,220.647720 324.707184,220.385117 305.502502,219.901535 
	C303.931702,219.861984 302.395691,218.441544 300.843506,217.662750 
	C304.877319,212.185089 308.911133,206.707413 313.201538,201.055023 
z"/>
	<path fill="url(#blueGradient3)" opacity="1.000000" stroke="none" d="
M410.609802,186.075912 
	C404.259247,185.451675 398.240417,184.593811 392.193268,184.052872 
	C388.895294,183.757858 385.548096,184.057922 382.225159,183.990082 
	C366.975525,183.678772 351.725952,183.357452 336.478363,182.961777 
	C334.856506,182.919693 333.247894,182.368668 331.202026,181.989273 
	C336.114929,176.608261 341.458862,171.291718 347.085175,165.839783 
	C353.738037,166.469498 360.090057,167.619110 366.482574,167.926712 
	C384.705322,168.803558 402.947632,169.268341 421.174622,170.068115 
	C424.602081,170.218491 427.994446,171.167252 431.783020,171.920258 
	C425.085297,176.720062 418.007538,181.347229 410.609802,186.075912 
z"/>
	<path fill="url(#blueGradient3)" opacity="1.000000" stroke="none" d="
M849.907959,601.074951 
	C847.414185,600.837646 845.171265,600.067505 842.924316,600.055481 
	C824.526489,599.957092 806.127869,600.016724 787.729614,599.973450 
	C785.948853,599.969238 784.168945,599.593689 782.115845,599.042908 
	C786.687378,592.543884 791.531738,586.392517 796.926086,580.364502 
	C799.107544,580.658569 800.743469,581.010803 802.369690,580.970764 
	C813.642334,580.692993 824.911255,580.225647 836.184998,580.055298 
	C840.459106,579.990662 844.739380,580.630676 849.022766,580.801880 
	C853.422241,580.977783 857.829041,580.973328 862.232605,581.047852 
	C858.207397,587.663025 854.182190,594.278198 849.907959,601.074951 
z"/>
	<path fill="url(#blueGradient3)" opacity="1.000000" stroke="none" d="
M862.498413,580.852905 
	C857.829041,580.973328 853.422241,580.977783 849.022766,580.801880 
	C844.739380,580.630676 840.459106,579.990662 836.184998,580.055298 
	C824.911255,580.225647 813.642334,580.692993 802.369690,580.970764 
	C800.743469,581.010803 799.107544,580.658569 797.194641,580.160645 
	C801.018372,573.650513 805.123596,567.467529 809.911377,561.157349 
	C814.653320,561.020142 818.712524,561.002686 822.771790,561.001526 
	C835.728821,560.997742 848.686584,560.923035 861.642395,561.049805 
	C865.250488,561.085083 868.852661,561.722961 872.457520,562.084473 
	C869.226440,568.275574 865.995361,574.466797 862.498413,580.852905 
z"/>
	<path fill="url(#blueGradient3)" opacity="1.000000" stroke="none" d="
M872.699646,561.874084 
	C868.852661,561.722961 865.250488,561.085083 861.642395,561.049805 
	C848.686584,560.923035 835.728821,560.997742 822.771790,561.001526 
	C818.712524,561.002686 814.653320,561.020142 810.172424,560.952637 
	C812.775330,555.457397 815.799866,550.039734 819.466553,544.318604 
	C838.463684,544.010071 856.818787,543.972595 875.173340,544.054382 
	C876.856323,544.061829 878.535950,544.831116 880.217102,545.246704 
	C877.791992,550.719055 875.366882,556.191406 872.699646,561.874084 
z"/>
	<path fill="#EEF9FC" opacity="1.000000" stroke="none" d="
M293.984222,386.985443 
	C293.645508,392.253021 293.508514,397.547302 292.816376,402.768036 
	C292.657074,403.969879 290.604492,405.832001 289.403809,405.847046 
	C272.974274,406.053253 256.540588,406.049011 240.110977,405.847412 
	C239.064453,405.834595 237.165421,403.776031 237.161224,402.663513 
	C237.142670,397.729126 237.671143,392.792725 238.475037,387.426819 
	C257.293640,386.992889 275.638916,386.989166 293.984222,386.985443 
z"/>
	<path fill="#DCF1F8" opacity="1.000000" stroke="none" d="
M293.986969,386.549988 
	C275.638916,386.989166 257.293640,386.992889 238.481323,386.991699 
	C238.644592,380.923859 239.274857,374.861023 240.387650,368.407288 
	C243.810410,368.344299 246.749100,368.938110 249.691177,368.955444 
	C265.119110,369.046417 280.547882,368.991425 295.976379,368.987122 
	C295.314148,374.696259 294.651917,380.405426 293.986969,386.549988 
z"/>
	<path fill="#CAEAF5" opacity="1.000000" stroke="none" d="
M296.034668,368.595154 
	C280.547882,368.991425 265.119110,369.046417 249.691177,368.955444 
	C246.749100,368.938110 243.810410,368.344299 240.450592,368.000061 
	C240.821365,362.833649 241.611725,357.683563 243.149170,352.265198 
	C262.283081,352.005554 280.669922,352.014191 299.056763,352.022827 
	C298.068817,357.416290 297.080872,362.809753 296.034668,368.595154 
z"/>
	<path fill="url(#blueGradient3)" opacity="1.000000" stroke="none" d="
M880.466919,544.988525 
	C878.535950,544.831116 876.856323,544.061829 875.173340,544.054382 
	C856.818787,543.972595 838.463684,544.010071 819.659546,544.024902 
	C821.717102,538.896851 824.223999,533.759033 827.319824,528.372803 
	C842.812439,528.293640 857.716248,528.445496 872.619446,528.642456 
	C877.365845,528.705200 882.110596,528.887939 886.856201,529.015869 
	C884.809692,534.254028 882.763184,539.492188 880.466919,544.988525 
z"/>
	<path fill="url(#blueGradient3)" opacity="1.000000" stroke="none" d="
M300.553894,217.853088 
	C302.395691,218.441544 303.931702,219.861984 305.502502,219.901535 
	C324.707184,220.385117 343.917297,220.647720 363.124725,221.032928 
	C364.744354,221.065414 366.354492,221.567993 368.366211,221.911285 
	C365.303223,225.798920 361.843048,229.627441 357.721283,233.727982 
	C336.699463,233.666473 316.338165,233.377869 295.981262,232.901047 
	C294.583160,232.868286 293.218018,231.428421 291.837524,230.642914 
	C294.646454,226.443085 297.455383,222.243256 300.553894,217.853088 
z"/>
	<path fill="url(#blueGradient3)" opacity="1.000000" stroke="none" d="
M325.790649,281.966187 
	C323.583374,286.430206 321.376099,290.894226 318.539795,295.672852 
	C314.098114,295.991608 310.284149,296.063080 306.473022,295.988251 
	C290.604309,295.676697 274.736481,295.321045 258.868317,294.981567 
	C260.715668,290.130646 262.563049,285.279724 265.064026,280.369720 
	C267.671875,280.540466 269.625458,280.962677 271.580505,280.969513 
	C287.204437,281.024048 302.828857,280.958374 318.452515,281.043152 
	C320.900146,281.056427 323.344696,281.644104 325.790649,281.966187 
z"/>
	<path fill="url(#blueGradient3)" opacity="1.000000" stroke="none" d="
M887.048401,528.692383 
	C882.110596,528.887939 877.365845,528.705200 872.619446,528.642456 
	C857.716248,528.445496 842.812439,528.293640 827.502808,528.072510 
	C828.972656,523.557739 830.848511,519.094788 833.360107,514.318604 
	C851.196533,514.003479 868.397400,513.965942 885.597717,514.051453 
	C887.457703,514.060669 889.314087,514.783203 891.172180,515.174805 
	C889.861694,519.572876 888.551147,523.970886 887.048401,528.692383 
z"/>
	<path fill="url(#blueGradient3)" opacity="1.000000" stroke="none" d="
M258.607758,295.212402 
	C274.736481,295.321045 290.604309,295.676697 306.473022,295.988251 
	C310.284149,296.063080 314.098114,295.991608 318.361511,295.978149 
	C316.729095,300.827606 314.645935,305.686340 311.843262,310.776794 
	C291.996521,310.661133 272.869293,310.313751 253.742050,309.966370 
	C255.277100,305.125336 256.812164,300.284302 258.607758,295.212402 
z"/>
	<path fill="url(#blueGradient3)" opacity="1.000000" stroke="none" d="
M291.556335,230.852097 
	C293.218018,231.428421 294.583160,232.868286 295.981262,232.901047 
	C316.338165,233.377869 336.699463,233.666473 357.528015,233.999924 
	C354.821747,238.200638 351.647156,242.401443 347.755493,246.793976 
	C339.752411,246.657150 332.468933,246.138977 325.179840,246.042877 
	C313.187927,245.884766 301.191986,246.049530 289.198730,245.953339 
	C287.094025,245.936447 284.994232,245.308426 282.892151,244.962646 
	C285.686493,240.328857 288.480835,235.695068 291.556335,230.852097 
z"/>
	<path fill="#E4F0FC" opacity="1.000000" stroke="none" d="
M906.007202,434.998199 
	C905.782776,439.745178 905.558289,444.492188 904.697266,449.619629 
	C885.716431,450.004944 867.372070,450.009766 849.027710,450.014618 
	C849.576233,445.260437 850.124695,440.506226 851.304321,435.375549 
	C869.959351,434.998779 887.983276,434.998505 906.007202,434.998199 
z"/>
	<path fill="#F2F8FE" opacity="1.000000" stroke="none" d="
M906.301941,434.705566 
	C887.983276,434.998505 869.959351,434.998779 851.466431,434.997711 
	C850.998657,432.002014 851.178284,428.994446 850.957642,426.016571 
	C850.651123,421.880676 852.814148,420.077148 856.507141,420.053802 
	C871.810791,419.957001 887.115417,419.999695 902.419678,420.024384 
	C905.666321,420.029633 907.309998,421.557098 907.024597,424.999146 
	C906.765259,428.127380 906.730408,431.274261 906.301941,434.705566 
z"/>
	<path fill="url(#blueGradient3)" opacity="1.000000" stroke="none" d="
M253.499451,310.211304 
	C272.869293,310.313751 291.996521,310.661133 311.592346,311.018494 
	C310.468811,315.463898 308.876678,319.899292 306.666138,324.666138 
	C299.977905,324.972107 293.906219,325.032837 287.838654,324.902527 
	C276.564301,324.660492 265.291168,324.341492 254.020920,323.955811 
	C252.630676,323.908234 251.261063,323.257477 249.881897,322.886230 
	C251.006882,318.742920 252.131866,314.599579 253.499451,310.211304 
z"/>
	<path fill="url(#blueGradient3)" opacity="1.000000" stroke="none" d="
M249.629456,323.149323 
	C251.261063,323.257477 252.630676,323.908234 254.020920,323.955811 
	C265.291168,324.341492 276.564301,324.660492 287.838654,324.902527 
	C293.906219,325.032837 299.977905,324.972107 306.506287,324.994934 
	C305.663300,329.405426 304.361755,333.818512 302.523071,338.611908 
	C283.296661,338.659332 264.607391,338.326477 245.918152,337.993622 
	C247.071091,333.133209 248.224045,328.272827 249.629456,323.149323 
z"/>
	<path fill="url(#blueGradient3)" opacity="1.000000" stroke="none" d="
M891.425903,514.908813 
	C889.314087,514.783203 887.457703,514.060669 885.597717,514.051453 
	C868.397400,513.965942 851.196533,514.003479 833.534302,514.009644 
	C834.515503,509.830322 835.958130,505.646545 838.126953,501.224304 
	C854.560242,500.657227 870.266602,500.263092 885.975342,500.056061 
	C889.071716,500.015228 892.177551,500.695740 895.279053,501.043610 
	C894.079224,505.576660 892.879395,510.109711 891.425903,514.908813 
z"/>
	<path fill="url(#blueGradient3)" opacity="1.000000" stroke="none" d="
M245.654846,338.254578 
	C264.607391,338.326477 283.296661,338.659332 302.442780,338.984680 
	C301.717712,343.098938 300.535736,347.220673 299.205261,351.682617 
	C280.669922,352.014191 262.283081,352.005554 243.421906,351.992737 
	C243.762207,347.497559 244.576874,343.006531 245.654846,338.254578 
z"/>
	<path fill="#D6E9FB" opacity="1.000000" stroke="none" d="
M849.019775,450.437714 
	C867.372070,450.009766 885.716431,450.004944 904.529175,450.000671 
	C904.540771,454.473724 904.084045,458.946198 902.873352,463.711609 
	C883.757812,464.007080 865.396240,464.009644 847.034668,464.012238 
	C847.693726,459.628448 848.352783,455.244629 849.019775,450.437714 
z"/>
	<path fill="url(#blueGradient3)" opacity="1.000000" stroke="none" d="
M270.583740,267.845795 
	C272.496796,263.979309 274.409821,260.112793 276.866882,256.341675 
	C278.539581,256.624573 279.665466,256.956482 280.797272,256.978088 
	C300.574524,257.356110 320.352478,257.696106 340.130280,258.044373 
	C337.694244,261.917267 335.258209,265.790131 332.099182,269.860901 
	C320.319733,269.705872 309.265076,269.271393 298.206146,269.029266 
	C291.085846,268.873352 283.957733,269.085419 276.836700,268.946991 
	C274.746033,268.906372 272.667725,268.230530 270.583740,267.845795 
z"/>
	<path fill="url(#blueGradient3)" opacity="1.000000" stroke="none" d="
M270.338104,268.067871 
	C272.667725,268.230530 274.746033,268.906372 276.836700,268.946991 
	C283.957733,269.085419 291.085846,268.873352 298.206146,269.029266 
	C309.265076,269.271393 320.319733,269.705872 331.873199,270.108246 
	C330.313538,273.903534 328.256897,277.649384 325.995453,281.680725 
	C323.344696,281.644104 320.900146,281.056427 318.452515,281.043152 
	C302.828857,280.958374 287.204437,281.024048 271.580505,280.969513 
	C269.625458,280.962677 267.671875,280.540466 265.328796,280.141602 
	C266.657471,276.078369 268.374969,272.184174 270.338104,268.067871 
z"/>
	<path fill="url(#blueGradient3)" opacity="1.000000" stroke="none" d="
M340.398376,257.854004 
	C320.352478,257.696106 300.574524,257.356110 280.797272,256.978088 
	C279.665466,256.956482 278.539581,256.624573 277.118103,256.106110 
	C278.672424,252.310501 280.519531,248.845840 282.629395,245.171906 
	C284.994232,245.308426 287.094025,245.936447 289.198730,245.953339 
	C301.191986,246.049530 313.187927,245.884766 325.179840,246.042877 
	C332.468933,246.138977 339.752411,246.657150 347.477173,246.976990 
	C345.499420,250.533401 343.082916,254.098541 340.398376,257.854004 
z"/>
	<path fill="url(#blueGradient3)" opacity="1.000000" stroke="none" d="
M841.102051,489.019043 
	C842.072998,485.282776 843.043884,481.546478 844.509766,477.409027 
	C863.685669,476.672668 882.366638,476.337494 901.047607,476.002319 
	C900.269714,480.169983 899.491882,484.337616 898.052673,488.728271 
	C893.844421,488.967468 890.297546,488.995331 886.750610,488.997925 
	C871.534424,489.009003 856.318237,489.012695 841.102051,489.019043 
z"/>
	<path fill="url(#blueGradient3)" opacity="1.000000" stroke="none" d="
M901.320190,475.731842 
	C882.366638,476.337494 863.685669,476.672668 844.550354,477.016296 
	C845.035217,472.946564 845.974426,468.868378 846.974121,464.401215 
	C865.396240,464.009644 883.757812,464.007080 902.596191,464.010864 
	C902.579529,467.831940 902.086121,471.646637 901.320190,475.731842 
z"/>
	<path fill="url(#blueGradient3)" opacity="1.000000" stroke="none" d="
M841.014893,489.390625 
	C856.318237,489.012695 871.534424,489.009003 886.750610,488.997925 
	C890.297546,488.995331 893.844421,488.967468 897.808228,489.013153 
	C897.403320,492.894318 896.581543,496.713562 895.519409,500.788208 
	C892.177551,500.695740 889.071716,500.015228 885.975342,500.056061 
	C870.266602,500.263092 854.560242,500.657227 838.377319,500.969025 
	C838.910278,497.222198 839.919006,493.492188 841.014893,489.390625 
z"/>
	<path fill="#FEFEFE" opacity="1.000000" stroke="none" d="
M536.804810,370.782959 
	C570.191711,344.752167 617.216248,361.487061 626.683655,402.455658 
	C635.082947,438.802185 602.313721,474.629333 565.508179,469.339905 
	C528.832642,464.069153 507.702972,429.723083 519.738831,394.741577 
	C523.001892,385.257629 528.809082,377.414459 536.804810,370.782959 
z"/>
</svg>